<?xml version="1.0" standalone="no"?><svg xmlns="http://www.w3.org/2000/svg" viewBox="0 0 1440 320"><path fill="#000" fill-opacity="1" d="M0,160L34.3,133.3C68.6,107,137,53,206,58.7C274.3,64,343,128,411,144C480,160,549,128,617,144C685.7,160,754,224,823,208C891.4,192,960,96,1029,85.3C1097.1,75,1166,149,1234,176C1302.9,203,1371,181,1406,170.7L1440,160L1440,0L1405.7,0C1371.4,0,1303,0,1234,0C1165.7,0,1097,0,1029,0C960,0,891,0,823,0C754.3,0,686,0,617,0C548.6,0,480,0,411,0C342.9,0,274,0,206,0C137.1,0,69,0,34,0L0,0Z"></path></svg>